# xmcd
#
# Track frame offsets:
#	150
#	13990
#	32407
#	50027
#	66710
#	80510
#	98927
#	116487
#
# Disc length: 1775 seconds
#
# Revision: 1
# Processed by: cddbd v1.5.1PL2 Copyright (c) Steve Scherf et al.
# Submitted via: audiograbber 1.83.01
#
DISCID=6d06ed08
DTITLE=Priddis - 7749
DYEAR=1900
DGENRE=Karaoke
TTITLE0=Blue
TTITLE1=Unchained Melody
TTITLE2=One Way Ticket (Because) 
TTITLE3=The Light In Your Eyes
TTITLE4=Demo 1
TTITLE5=Demo 2
TTITLE6=Demo 3
TTITLE7=Demo 4
EXTD=
EXTT0=
EXTT1=
EXTT2=
EXTT3=
EXTT4=
EXTT5=
EXTT6=
EXTT7=
PLAYORDER=
